<?xml version="1.0" encoding="UTF-8" standalone="no"?>
<svg
   xmlns:dc="http://purl.org/dc/elements/1.1/"
   xmlns:cc="http://creativecommons.org/ns#"
   xmlns:rdf="http://www.w3.org/1999/02/22-rdf-syntax-ns#"
   xmlns:svg="http://www.w3.org/2000/svg"
   xmlns="http://www.w3.org/2000/svg"
   id="svg8"
   version="1.1"
   viewBox="0 0 77.124192 22.489585"
   height="85"
   width="291.49298">
  <defs
     id="defs2">
    <filter
       id="filter1167"
       style="color-interpolation-filters:sRGB">
      <feFlood
         id="feFlood1157"
         result="flood"
         flood-color="rgb(0,0,0)"
         flood-opacity="0.498039" />
      <feComposite
         id="feComposite1159"
         result="composite1"
         operator="in"
         in2="SourceGraphic"
         in="flood" />
      <feGaussianBlur
         id="feGaussianBlur1161"
         result="blur"
         stdDeviation="0"
         in="composite1" />
      <feOffset
         id="feOffset1163"
         result="offset"
         dy="1.8"
         dx="1.8" />
      <feComposite
         id="feComposite1165"
         result="composite2"
         operator="over"
         in2="offset"
         in="SourceGraphic" />
    </filter>
    <filter
       id="filter1179"
       style="color-interpolation-filters:sRGB">
      <feFlood
         id="feFlood1169"
         result="flood"
         flood-color="rgb(0,0,0)"
         flood-opacity="0.498039" />
      <feComposite
         id="feComposite1171"
         result="composite1"
         operator="in"
         in2="SourceGraphic"
         in="flood" />
      <feGaussianBlur
         id="feGaussianBlur1173"
         result="blur"
         stdDeviation="0"
         in="composite1" />
      <feOffset
         id="feOffset1175"
         result="offset"
         dy="1.8"
         dx="1.8" />
      <feComposite
         id="feComposite1177"
         result="composite2"
         operator="over"
         in2="offset"
         in="SourceGraphic" />
    </filter>
    <filter
       id="filter350"
       style="color-interpolation-filters:sRGB">
      <feFlood
         id="feFlood340"
         result="flood"
         flood-color="rgb(0,0,0)"
         flood-opacity="0.498039" />
      <feComposite
         id="feComposite342"
         result="composite1"
         operator="in"
         in2="SourceGraphic"
         in="flood" />
      <feGaussianBlur
         id="feGaussianBlur344"
         result="blur"
         stdDeviation="0"
         in="composite1" />
      <feOffset
         id="feOffset346"
         result="offset"
         dy="1.8"
         dx="1.8" />
      <feComposite
         id="feComposite348"
         result="composite2"
         operator="over"
         in2="offset"
         in="SourceGraphic" />
    </filter>
  </defs>
  <metadata
     id="metadata5">
    <rdf:RDF>
      <cc:Work
         rdf:about="">
        <dc:format>image/svg+xml</dc:format>
        <dc:type
           rdf:resource="http://purl.org/dc/dcmitype/StillImage" />
        <dc:title></dc:title>
      </cc:Work>
    </rdf:RDF>
  </metadata>
  <g
     transform="translate(37.085596,-23.744754)"
     id="layer1">
    <flowRoot
       transform="matrix(0.10206814,0,0,0.10206814,-21.966534,27.585971)"
       style="font-style:normal;font-variant:normal;font-weight:normal;font-stretch:normal;font-size:40px;line-height:956.84997559;font-family:sans-serif;-inkscape-font-specification:sans-serif;letter-spacing:0px;word-spacing:0px;fill:#000000;fill-opacity:1;stroke:none"
       id="flowRoot40"
       xml:space="preserve"><flowRegion
         style="font-style:normal;font-variant:normal;font-weight:normal;font-stretch:normal;font-family:sans-serif;-inkscape-font-specification:sans-serif"
         id="flowRegion42"><rect
           style="font-style:normal;font-variant:normal;font-weight:normal;font-stretch:normal;font-family:sans-serif;-inkscape-font-specification:sans-serif"
           y="112.36714"
           x="32.324883"
           height="202.0305"
           width="646.49762"
           id="rect44" /></flowRegion><flowPara
         id="flowPara46">sdsdsdsd</flowPara><flowPara
         id="flowPara48" /><flowPara
         id="flowPara50" /><flowPara
         id="flowPara52" /><flowPara
         id="flowPara54" /><flowPara
         id="flowPara56" /></flowRoot>    <g
       id="text60"
       style="font-style:normal;font-variant:normal;font-weight:normal;font-stretch:normal;font-size:28.67652512px;line-height:956.84997559;font-family:FontAwesome;-inkscape-font-specification:FontAwesome;letter-spacing:0px;word-spacing:0px;fill:#000000;fill-opacity:1;stroke:none;stroke-width:0.7169131"
       transform="matrix(0.41806502,0,0,0.43946729,-20.43363,25.660922)"
       aria-label="xeroxIRC">
      <path
         id="path43"
         style="font-style:normal;font-variant:normal;font-weight:normal;font-stretch:normal;font-family:'Russo One';-inkscape-font-specification:'Russo One';stroke-width:0.7169131"
         d="m -26.056349,24.805459 h 5.591922 l -4.588244,7.599279 4.731627,7.599279 h -5.591922 l -2.580888,-4.588244 -2.580887,4.588244 h -5.591922 l 4.731626,-7.599279 -4.588244,-7.599279 h 5.591923 l 2.437504,4.588244 z" />
      <path
         id="path45"
         style="font-style:normal;font-variant:normal;font-weight:normal;font-stretch:normal;font-family:'Russo One';-inkscape-font-specification:'Russo One';stroke-width:0.7169131"
         d="m -13.552936,28.103259 q -1.147061,0 -1.147061,1.147061 v 1.577209 h 4.8750093 V 29.25032 q 0,-1.147061 -1.1470613,-1.147061 z m 8.1728097,11.613993 q -5.5345697,0.57353 -10.0367837,0.57353 -1.950004,0 -3.125741,-1.175737 -1.175738,-1.175738 -1.175738,-3.125742 v -6.882366 q 0,-2.150739 1.204414,-3.355153 1.233091,-1.233091 3.38383,-1.233091 h 5.7353051 q 2.1507394,0 3.3551535,1.233091 1.2330906,1.204414 1.2330906,3.355153 v 5.305157 h -9.8934012 v 1.147061 q 0,0.430148 0.286765,0.716914 0.286765,0.286765 0.716913,0.286765 2.838976,0 8.3161927,-0.430148 z" />
      <path
         id="path47"
         style="font-style:normal;font-variant:normal;font-weight:normal;font-stretch:normal;font-family:'Russo One';-inkscape-font-specification:'Russo One';stroke-width:0.7169131"
         d="m 6.5094282,28.963555 q -1.8066211,0 -3.7279483,0.860295 V 40.004017 H -2.236912 V 24.805459 h 4.4448614 l 0.2867653,1.863974 q 2.4661811,-2.15074 5.1617745,-2.15074 h 1.2904436 v 4.444862 z" />
      <path
         id="path49"
         style="font-style:normal;font-variant:normal;font-weight:normal;font-stretch:normal;font-family:'Russo One';-inkscape-font-specification:'Russo One';stroke-width:0.7169131"
         d="m 25.906409,35.702538 q 0,2.150739 -1.233091,3.38383 -1.204414,1.204414 -3.355153,1.204414 h -6.595601 q -2.150739,0 -3.38383,-1.204414 -1.204414,-1.233091 -1.204414,-3.38383 v -6.595601 q 0,-2.150739 1.204414,-3.355153 1.233091,-1.233091 3.38383,-1.233091 h 6.595601 q 2.150739,0 3.355153,1.233091 1.233091,1.204414 1.233091,3.355153 z m -5.018392,-6.165453 q 0,-1.147061 -1.147061,-1.147061 h -3.441183 q -1.147061,0 -1.147061,1.147061 v 5.735305 q 0,1.147061 1.147061,1.147061 h 3.441183 q 1.147061,0 1.147061,-1.147061 z" />
      <path
         id="path51"
         style="font-style:normal;font-variant:normal;font-weight:normal;font-stretch:normal;font-family:'Russo One';-inkscape-font-specification:'Russo One';stroke-width:0.7169131"
         d="m 37.121622,24.805459 h 5.591922 l -4.588244,7.599279 4.731627,7.599279 h -5.591923 l -2.580887,-4.588244 -2.580887,4.588244 h -5.591922 l 4.731626,-7.599279 -4.588244,-7.599279 h 5.591923 l 2.437504,4.588244 z" />
      <path
         id="path53"
         style="font-style:normal;font-variant:normal;font-weight:normal;font-stretch:normal;font-family:'Russo One';-inkscape-font-specification:'Russo One';stroke-width:0.7169131"
         d="M 53.776405,40.004017 H 43.452856 v -4.014714 h 2.580887 v -12.04414 h -2.580887 v -4.014714 h 10.323549 v 4.014714 h -2.580888 v 12.04414 h 2.580888 z" />
      <path
         id="path55"
         style="font-style:normal;font-variant:normal;font-weight:normal;font-stretch:normal;font-family:'Russo One';-inkscape-font-specification:'Russo One';stroke-width:0.7169131"
         d="m 56.355052,19.930449 h 12.044141 q 3.011035,0 4.358831,1.376474 1.376474,1.347796 1.376474,4.358831 v 2.580888 q 0,2.380151 -0.802943,3.699271 -0.774266,1.31912 -2.494858,1.749268 l 3.584566,6.308836 H 68.82934 l -3.2978,-6.02207 h -4.014714 v 6.02207 h -5.161774 z m 12.617671,5.735305 q 0,-1.720591 -1.720591,-1.720591 h -5.735306 v 6.02207 h 5.735306 q 1.720591,0 1.720591,-1.720591 z" />
      <path
         id="path57"
         style="font-style:normal;font-variant:normal;font-weight:normal;font-stretch:normal;font-family:'Russo One';-inkscape-font-specification:'Russo One';stroke-width:0.7169131"
         d="m 92.507642,39.717252 q -6.394865,0.57353 -10.610314,0.57353 -2.810299,0 -4.12942,-1.31912 -1.31912,-1.31912 -1.31912,-4.12942 v -9.176488 q 0,-3.011035 1.347797,-4.358831 1.376473,-1.376474 4.387508,-1.376474 h 10.323549 v 4.014714 h -9.176488 q -1.720591,0 -1.720591,1.720591 v 9.176488 q 0,0.65956 0.372795,1.061032 0.401471,0.372795 1.003678,0.372795 0.602207,0 1.31912,0 0.716913,-0.02868 1.491179,-0.05735 0.774267,-0.02868 1.548533,-0.05735 0.802943,-0.02868 2.036033,-0.114707 1.261767,-0.08603 3.125741,-0.200735 z" />
    </g>
    <g
       transform="matrix(0.4286326,0,0,0.4286326,-13.515676,33.032511)"
       id="g41">
      <path
         id="path110"
         d="M 101.20206,5.7370861 H 69.905642 c -2.876989,0 -5.216071,2.87831 -5.216071,6.4185319 v 28.883395 c 0,3.540221 2.339082,6.418534 5.216071,6.418534 h 7.824106 v 8.424324 c 0,0.982836 0.912813,1.554487 1.556673,0.972807 l 10.179485,-9.397131 h 11.736154 c 2.877,0 5.21608,-2.878313 5.21608,-6.418534 V 12.155618 c 0,-3.5402219 -2.33908,-6.4185319 -5.21608,-6.4185319 z"
         style="fill:#1000ff;fill-opacity:1;stroke-width:0.09040857;filter:url(#filter350)"
         transform="matrix(0.86266354,0,0,0.75128755,26.45294,-19.034221)" />
      <path
         id="path173"
         d="m 100.47046,22.248897 0.49176,-2.382599 c 0.0904,-0.4381 -0.29892,-0.840403 -0.81327,-0.840403 h -5.150353 l 1.006732,-4.877837 c 0.0904,-0.438101 -0.29893,-0.840403 -0.813272,-0.840403 h -2.79735 a 0.8261491,0.71477989 0 0 0 -0.81327,0.589158 l -1.05864,5.129082 h -6.7906 l 1.00673,-4.877837 c 0.0905,-0.438101 -0.29886,-0.840403 -0.81328,-0.840403 h -2.79734 a 0.8261491,0.71477989 0 0 0 -0.81327,0.589158 l -1.05864,5.129082 h -5.44543 a 0.8261491,0.71477989 0 0 0 -0.81327,0.589157 l -0.49177,2.382601 c -0.0904,0.4381 0.29893,0.8404 0.81328,0.8404 h 5.15035 l -1.57361,7.624321 h -5.44542 a 0.8261491,0.71477989 0 0 0 -0.81328,0.589156 l -0.49176,2.382601 c -0.0904,0.4381 0.29892,0.840401 0.81327,0.840401 h 5.15035 l -1.00673,4.877836 c -0.0904,0.4381 0.29893,0.840403 0.81327,0.840403 h 2.79735 a 0.8261491,0.71477989 0 0 0 0.81327,-0.589157 l 1.05871,-5.129082 h 6.79053 l -1.00673,4.877836 c -0.0905,0.4381 0.29886,0.840403 0.81328,0.840403 h 2.79734 a 0.8261491,0.71477989 0 0 0 0.81327,-0.589157 l 1.05864,-5.129082 h 5.445432 a 0.8261491,0.71477989 0 0 0 0.81327,-0.589157 l 0.49177,-2.382599 c 0.0904,-0.4381 -0.29893,-0.840402 -0.81327,-0.840402 h -5.150362 l 1.57361,-7.624321 h 5.445422 a 0.8261491,0.71477989 0 0 0 0.813281,-0.589156 z m -12.308113,8.213477 h -6.79053 l 1.57361,-7.624321 h 6.79053 z"
         style="fill:#ffffff;fill-opacity:1;stroke-width:0.06403746;filter:url(#filter1179)"
         transform="matrix(0.72035381,0,0,0.73960387,38.760522,-18.85896)" />
    </g>
  </g>
</svg>
