<?xml version="1.0" standalone="no"?>
<!DOCTYPE svg PUBLIC "-//W3C//DTD SVG 20010904//EN"
 "http://www.w3.org/TR/2001/REC-SVG-20010904/DTD/svg10.dtd">
<svg version="1.0" xmlns="http://www.w3.org/2000/svg"
 width="656.000000pt" height="656.000000pt" viewBox="0 0 656.000000 656.000000"
 preserveAspectRatio="xMidYMid meet">
<metadata>
Created by potrace 1.11, written by Peter Selinger 2001-2013
</metadata>
<g transform="translate(0.000000,656.000000) scale(0.100000,-0.100000)"
fill="#000000" stroke="none">
<path d="M1327 6013 c-1 -1 -20 -4 -42 -7 -89 -14 -144 -33 -224 -78 -56 -32
-183 -151 -211 -198 -54 -93 -84 -165 -107 -255 -12 -48 -14 -3280 -2 -3345 6
-30 16 -73 24 -96 28 -83 99 -214 116 -214 5 0 9 -5 9 -11 0 -14 83 -93 140
-132 47 -33 157 -81 212 -93 18 -4 263 -8 543 -10 281 -2 517 -3 525 -4 13 0
15 -58 15 -461 0 -499 0 -497 54 -540 31 -25 105 -22 136 4 11 9 108 87 215
172 264 212 260 209 274 220 6 6 34 28 61 50 28 22 55 44 62 50 7 5 18 15 25
20 7 6 35 28 63 50 27 22 54 43 60 48 5 4 21 17 35 28 14 11 40 33 59 47 19
15 39 32 45 37 6 6 34 28 61 50 28 21 52 42 55 45 3 3 30 24 60 48 30 23 62
48 70 55 8 7 34 28 56 46 l42 33 763 2 c420 2 779 6 797 10 102 22 231 95 312
176 45 46 100 120 100 137 0 7 4 13 9 13 5 0 21 31 35 68 59 153 56 63 53
1837 -1 897 -6 1644 -10 1660 -4 17 -13 46 -19 65 -7 19 -13 40 -14 47 -3 15
-69 137 -86 159 -29 37 -138 146 -138 138 0 -4 -6 -1 -12 8 -28 37 -159 93
-265 115 -24 5 -3952 11 -3956 6z"/>
</g>
</svg>
