<?xml version="1.0" standalone="no"?>
<!DOCTYPE svg PUBLIC "-//W3C//DTD SVG 20010904//EN"
 "http://www.w3.org/TR/2001/REC-SVG-20010904/DTD/svg10.dtd">
<svg version="1.0" xmlns="http://www.w3.org/2000/svg"
 width="1816.000000pt" height="1816.000000pt" viewBox="0 0 1816.000000 1816.000000"
 preserveAspectRatio="xMidYMid meet">
<metadata>
Created by potrace 1.11, written by Peter Selinger 2001-2013
</metadata>
<g transform="translate(0.000000,1816.000000) scale(0.100000,-0.100000)"
fill="#000000" stroke="none">
<path d="M7240 13697 c-3 -3 -41 -7 -85 -11 -44 -3 -98 -8 -120 -11 -22 -3
-58 -7 -80 -9 -22 -3 -41 -6 -42 -7 -2 -1 -12 -3 -23 -4 -11 -1 -21 -3 -22 -5
-2 -1 -16 -3 -33 -4 -33 -3 -199 -39 -254 -55 -19 -6 -37 -8 -42 -6 -4 3 -10
1 -14 -5 -3 -5 -16 -10 -29 -10 -12 0 -26 -3 -30 -7 -3 -4 -12 -8 -19 -9 -7
-1 -57 -17 -112 -35 -55 -18 -102 -33 -105 -34 -8 -3 -43 -16 -75 -30 -16 -7
-57 -23 -90 -36 -33 -13 -61 -27 -63 -31 -2 -5 -10 -8 -18 -8 -23 0 -318 -153
-381 -197 -17 -13 -36 -23 -42 -23 -6 0 -11 -5 -11 -11 0 -5 -5 -7 -10 -4 -6
3 -13 -1 -16 -9 -3 -9 -12 -16 -18 -16 -7 0 -36 -17 -64 -37 -28 -21 -76 -56
-107 -77 -30 -22 -63 -47 -73 -56 -9 -9 -24 -21 -33 -26 -98 -57 -458 -414
-579 -574 -14 -18 -44 -58 -67 -89 -24 -31 -47 -61 -53 -68 -5 -6 -40 -58 -76
-115 -37 -57 -74 -114 -83 -128 -9 -14 -29 -50 -45 -80 -16 -30 -34 -58 -40
-62 -6 -4 -7 -8 -3 -8 5 0 -1 -13 -12 -29 -12 -16 -21 -33 -21 -38 0 -5 -18
-44 -40 -87 -39 -75 -148 -341 -155 -378 -2 -10 -6 -22 -10 -27 -3 -5 -16 -49
-30 -98 -13 -48 -29 -101 -34 -118 -6 -16 -12 -41 -15 -55 -3 -14 -9 -40 -15
-58 -5 -18 -7 -40 -4 -48 3 -8 0 -14 -6 -14 -7 0 -11 -6 -10 -12 2 -7 -1 -28
-5 -46 -4 -19 -9 -43 -10 -55 -13 -105 -19 -127 -34 -128 -10 0 -60 -2 -112
-4 -177 -7 -304 -19 -381 -36 -26 -6 -59 -12 -75 -13 -16 -2 -40 -6 -54 -9
-14 -4 -65 -16 -115 -27 -100 -23 -123 -30 -210 -60 -33 -12 -82 -28 -110 -37
-51 -16 -118 -43 -168 -69 -16 -8 -35 -14 -43 -14 -8 0 -14 -5 -14 -12 0 -6
-3 -9 -6 -5 -8 8 -217 -101 -334 -175 -52 -33 -104 -65 -114 -72 -11 -6 -29
-19 -40 -29 -12 -10 -33 -26 -48 -35 -16 -9 -28 -20 -28 -24 0 -4 -6 -8 -14
-8 -8 0 -16 -3 -18 -7 -1 -5 -37 -35 -78 -68 -70 -55 -327 -306 -377 -367 -53
-64 -140 -176 -163 -208 -41 -58 -136 -203 -154 -235 -9 -16 -30 -52 -46 -80
-16 -27 -32 -57 -36 -65 -4 -8 -26 -55 -50 -105 -24 -49 -43 -93 -44 -97 0 -4
-12 -32 -25 -61 -37 -86 -125 -354 -139 -427 -3 -14 -7 -35 -10 -47 -10 -41
-14 -60 -20 -97 -3 -19 -10 -55 -15 -78 -5 -24 -12 -70 -16 -103 -3 -33 -8
-73 -11 -88 -2 -15 -6 -79 -9 -142 -2 -64 -7 -120 -11 -127 -4 -7 -3 -8 4 -4
9 5 9 1 3 -17 -6 -16 -6 -28 2 -36 8 -8 8 -11 -2 -11 -7 0 -9 -5 -6 -10 4 -6
8 -63 10 -128 3 -101 30 -346 40 -362 2 -3 6 -26 9 -50 3 -25 10 -60 15 -78 5
-18 10 -35 10 -37 1 -3 1 -6 2 -7 0 -2 2 -14 5 -28 8 -48 67 -245 77 -257 5
-7 7 -13 3 -13 -4 0 0 -13 8 -29 9 -16 12 -31 9 -35 -4 -3 -1 -6 6 -6 7 0 10
-4 7 -9 -4 -5 1 -22 9 -38 8 -15 29 -62 46 -103 31 -76 110 -241 119 -250 3
-3 14 -21 24 -40 11 -19 24 -44 30 -54 44 -78 205 -312 253 -366 7 -8 30 -35
50 -59 141 -166 276 -296 460 -443 40 -32 76 -58 82 -58 5 0 11 -4 13 -9 5
-13 168 -119 288 -187 98 -56 129 -72 255 -129 87 -40 207 -86 290 -112 44
-13 87 -27 95 -30 8 -3 22 -7 30 -9 8 -1 49 -12 90 -23 82 -22 122 -31 160
-36 14 -2 25 -4 25 -5 0 -2 27 -6 100 -15 63 -8 90 -12 90 -15 0 -12 951 -15
5590 -15 4449 0 5467 2 5540 13 50 7 108 16 130 19 22 3 51 7 65 10 14 2 34 5
45 7 11 2 20 4 20 6 0 1 9 3 20 5 59 10 133 28 220 54 39 12 77 23 85 26 8 2
17 4 20 5 3 1 10 3 15 4 6 1 19 6 30 10 11 5 61 24 110 43 50 19 127 53 172
74 46 21 87 39 92 39 5 0 16 6 23 13 8 6 47 29 88 51 70 36 303 184 346 219
33 27 101 81 135 107 18 14 53 44 77 68 25 23 46 42 47 42 6 0 128 126 194
199 36 41 73 81 81 90 8 9 43 54 78 101 35 47 69 92 75 100 7 8 23 33 37 55
13 22 28 42 32 43 4 2 8 10 8 18 0 8 4 14 9 14 5 0 11 8 15 18 5 17 19 41 62
112 38 61 134 257 134 273 0 8 7 20 15 27 9 7 13 15 11 18 -3 2 1 17 9 32 16
31 112 309 120 347 8 35 14 66 21 93 3 14 6 31 6 38 1 6 4 12 7 12 3 0 6 10 7
23 1 24 13 92 19 117 16 58 38 272 39 382 1 49 4 88 8 88 4 0 3 11 -2 25 -6
15 -6 26 1 30 5 4 7 11 3 16 -3 6 -8 61 -10 122 -5 155 -15 259 -35 363 -5 28
-12 64 -14 80 -3 16 -8 40 -12 54 -3 14 -7 32 -9 40 -1 8 -5 26 -8 40 -3 14
-8 35 -10 48 -3 12 -8 27 -11 33 -4 5 -9 23 -11 39 -7 41 -82 257 -124 355 -8
17 -14 32 -15 35 0 3 -13 31 -28 63 -15 32 -27 62 -27 66 0 5 -3 11 -7 13 -5
2 -19 26 -33 53 -38 76 -123 220 -132 223 -4 2 -8 8 -8 12 0 12 -62 104 -72
108 -4 2 -8 8 -8 14 0 5 -20 35 -45 66 -25 31 -48 62 -53 67 -15 21 -127 151
-152 176 -14 14 -34 37 -46 50 -25 29 -140 136 -216 202 -318 274 -757 511
-1133 612 -33 9 -67 19 -75 22 -17 6 -32 10 -70 17 -14 2 -43 8 -65 14 -22 6
-53 13 -70 16 -16 3 -57 9 -90 15 -74 13 -166 23 -225 26 -25 2 -45 4 -45 5 0
1 -72 4 -160 5 -88 2 -162 4 -165 4 -3 1 -7 13 -8 28 -1 15 -9 62 -18 103 -9
41 -17 84 -18 95 -1 11 -5 26 -9 33 -5 6 -6 16 -2 21 3 5 1 12 -5 16 -5 3 -10
14 -10 24 0 25 -75 253 -110 336 -5 11 -23 50 -39 87 -17 37 -31 71 -31 77 0
5 -3 11 -7 13 -5 2 -21 31 -38 65 -16 35 -33 63 -37 63 -5 0 -8 9 -8 20 0 11
-3 20 -7 20 -5 0 -24 27 -43 60 -19 33 -38 60 -42 60 -5 0 -8 5 -8 11 0 11
-103 154 -160 222 -84 99 -247 264 -320 323 -19 16 -37 31 -40 34 -3 3 -30 24
-60 48 -30 23 -60 45 -65 50 -24 20 -195 132 -201 132 -3 0 -25 12 -48 28 -63
42 -263 137 -373 178 -54 19 -107 40 -118 45 -11 6 -30 11 -43 12 -12 0 -22 6
-22 11 0 5 -3 6 -6 3 -4 -3 -14 -2 -23 2 -9 5 -29 11 -46 14 -16 2 -48 9 -70
15 -74 20 -130 32 -165 37 -19 2 -46 7 -60 10 -14 3 -43 8 -65 10 -22 2 -69 7
-105 10 -127 13 -448 7 -570 -10 -30 -4 -66 -9 -80 -10 -54 -7 -108 -17 -185
-35 -44 -11 -93 -22 -108 -24 -16 -3 -35 -10 -43 -17 -8 -6 -14 -9 -14 -6 0 7
-106 -27 -228 -74 -94 -37 -290 -132 -377 -184 l-31 -18 -100 99 c-114 113
-214 206 -214 199 0 -3 -15 10 -34 28 -55 51 -86 76 -86 69 0 -4 -4 -2 -8 3
-9 13 -130 105 -138 105 -3 0 -19 10 -34 23 -48 39 -230 152 -313 193 -29 15
-55 31 -58 36 -3 5 -10 10 -15 9 -5 0 -34 12 -64 26 -30 15 -57 28 -60 28 -3
1 -25 11 -50 22 -25 12 -74 34 -110 49 -36 14 -76 31 -90 37 -14 5 -36 12 -50
14 -13 2 -29 8 -35 12 -10 8 -129 48 -162 54 -10 2 -25 7 -33 10 -20 7 -207
54 -245 62 -16 3 -45 8 -64 11 -18 3 -43 8 -55 11 -24 5 -50 9 -121 18 -27 3
-66 8 -85 11 -19 3 -60 8 -90 11 -71 7 -555 15 -560 10z"/>
</g>
</svg>
